<svg id="logo-circle" xmlns="http://www.w3.org/2000/svg" version="1.0" width="577px" height="575px" viewBox="0 0 5770 5750" preserveAspectRatio="xMidYMid meet">
<g id="layer101" fill="#fbc924" stroke="none">
 <path d="M2765 5681 c-6 -5 -33 -21 -62 -36 -55 -28 -134 -105 -176 -171 -60 -96 -58 -295 5 -415 38 -72 269 -339 294 -339 13 0 95 -116 116 -163 10 -21 18 -49 18 -61 0 -12 6 -30 13 -40 13 -18 15 -17 35 11 42 59 47 108 23 206 -20 83 -27 95 -126 228 -58 77 -105 145 -105 151 0 6 -11 26 -26 45 -36 48 -57 158 -49 258 7 87 21 136 67 237 25 56 29 70 18 83 -14 17 -31 19 -45 6z"/>
 <path d="M3591 5530 c-29 -11 -60 -25 -68 -31 -8 -7 -33 -22 -56 -33 -60 -30 -110 -113 -156 -257 -13 -42 -15 -159 -2 -191 5 -13 14 -43 21 -68 16 -59 34 -105 87 -218 88 -190 96 -218 95 -315 -1 -70 2 -89 14 -94 21 -8 71 42 96 95 38 79 25 267 -25 382 -32 74 -49 148 -54 241 -5 86 -3 104 21 175 35 103 105 206 179 262 47 36 56 47 46 58 -17 21 -132 17 -198 -6z"/>
 <path d="M1579 5348 c-63 -77 -80 -107 -106 -186 -43 -131 -26 -219 69 -367 55 -85 159 -155 333 -221 298 -114 344 -138 396 -215 17 -24 17 -24 38 -5 28 26 27 70 -5 134 -41 82 -121 147 -287 232 -201 103 -290 192 -344 341 -23 63 -27 91 -27 189 -1 107 -7 140 -24 140 -4 0 -24 -19 -43 -42z"/>
 <path d="M4472 4970 c-97 -35 -204 -140 -259 -255 -40 -85 -52 -186 -53 -439 0 -161 -1 -171 -27 -230 -15 -33 -33 -69 -41 -78 -37 -45 31 -66 84 -26 123 92 150 152 179 405 21 172 66 285 148 371 63 66 115 98 231 142 149 58 150 65 13 105 -106 30 -199 32 -275 5z"/>
 <path d="M828 4773 c-54 -63 -72 -279 -30 -358 12 -21 22 -44 22 -50 0 -14 78 -96 125 -131 123 -92 174 -104 485 -113 153 -5 254 -12 267 -19 12 -7 29 -12 39 -12 9 0 32 -14 51 -30 28 -25 38 -29 49 -19 34 28 -1 109 -75 172 -37 30 -168 75 -256 87 -148 20 -209 31 -261 44 -71 18 -199 102 -242 158 -39 51 -89 151 -113 228 -18 59 -36 71 -61 43z"/>
 <path d="M2675 4381 c-11 -4 -47 -11 -81 -15 -34 -4 -78 -16 -100 -26 -21 -11 -46 -20 -56 -20 -17 0 -157 -58 -248 -103 -164 -81 -416 -296 -529 -451 -62 -86 -201 -336 -201 -362 0 -8 -11 -42 -24 -76 -13 -35 -29 -90 -36 -123 -7 -33 -16 -76 -21 -95 -5 -19 -9 -129 -9 -245 0 -171 4 -224 19 -285 10 -41 22 -93 26 -115 10 -58 81 -240 122 -315 20 -36 45 -81 56 -100 10 -19 29 -46 41 -60 12 -14 34 -43 49 -65 49 -74 275 -295 301 -295 3 0 34 -21 68 -46 72 -52 286 -158 362 -179 28 -7 65 -18 81 -24 63 -21 274 -50 380 -51 263 -2 512 61 744 187 223 121 305 194 522 463 80 99 173 279 212 410 60 203 62 221 62 485 0 234 -2 255 -23 325 -55 175 -67 209 -104 285 -21 45 -38 84 -38 88 0 4 -8 20 -18 35 -10 15 -36 54 -58 87 -171 263 -451 494 -716 590 -152 56 -231 78 -307 87 -118 13 -451 20 -476 9z m390 -231 c299 -44 551 -170 764 -380 148 -146 260 -349 327 -595 45 -165 42 -485 -5 -660 -78 -289 -263 -554 -504 -722 -84 -60 -271 -149 -380 -182 -296 -90 -684 -54 -965 91 -133 68 -215 128 -335 244 -102 99 -177 208 -252 368 -56 118 -66 147 -85 241 -7 33 -16 74 -22 91 -12 43 -12 427 0 450 6 11 16 46 22 79 25 126 116 322 211 452 70 96 215 240 302 300 186 129 405 208 637 232 119 13 147 12 285 -9z"/>
 <path d="M4990 4294 c-128 -58 -167 -85 -242 -165 -61 -67 -110 -164 -179 -359 -55 -157 -64 -173 -125 -239 -62 -67 -64 -86 -10 -96 47 -9 121 34 202 117 47 49 79 97 140 213 86 163 129 215 236 285 78 51 135 63 293 65 108 1 129 3 127 15 -6 24 -21 38 -97 89 -125 83 -261 113 -345 75z"/>
 <path d="M212 3737 c-18 -21 11 -176 48 -261 24 -53 100 -124 184 -171 52 -28 75 -35 151 -40 145 -11 218 8 455 119 173 82 239 101 309 92 33 -4 53 -2 66 8 18 13 18 15 1 41 -10 16 -45 39 -82 56 -52 24 -77 29 -138 29 -45 0 -88 -6 -112 -16 -21 -9 -67 -24 -103 -34 -36 -10 -99 -27 -138 -39 -81 -24 -200 -28 -283 -10 -71 15 -183 86 -267 168 -39 39 -74 71 -76 71 -3 0 -9 -6 -15 -13z"/>
 <path d="M5250 3271 c-62 -5 -87 -13 -145 -44 -38 -21 -74 -44 -80 -50 -5 -7 -35 -31 -65 -54 -30 -23 -112 -98 -181 -167 -122 -120 -130 -126 -198 -146 -39 -12 -74 -26 -77 -32 -10 -15 36 -57 70 -63 46 -9 150 11 209 39 29 13 108 66 177 116 69 51 157 108 195 129 l70 36 150 0 c140 0 152 -2 182 -22 17 -13 33 -23 36 -23 3 0 33 -16 67 -36 38 -23 65 -33 70 -28 6 6 1 34 -15 75 -19 48 -45 87 -106 154 -44 50 -93 95 -107 101 -35 15 -158 22 -252 15z"/>
 <path d="M1080 2991 c-96 -36 -140 -63 -215 -126 -98 -83 -133 -106 -224 -146 -82 -37 -90 -39 -194 -39 -103 0 -113 2 -195 37 -48 20 -91 40 -97 45 -13 12 -49 10 -63 -4 -20 -20 -14 -43 23 -97 19 -28 35 -55 35 -60 0 -5 10 -16 23 -24 12 -9 39 -31 60 -51 65 -62 118 -80 232 -80 77 0 116 5 170 23 120 39 171 75 331 235 175 175 216 206 279 213 82 10 82 47 0 84 -53 25 -76 23 -165 -10z"/>
 <path d="M5080 2455 c-118 -23 -173 -43 -322 -114 -185 -89 -289 -117 -336 -92 -14 7 -24 7 -38 -3 -18 -13 -18 -16 -2 -50 28 -58 64 -71 203 -71 120 0 216 17 275 49 81 45 278 60 381 30 111 -32 195 -90 287 -199 41 -48 43 -49 57 -31 8 11 15 40 15 64 0 46 -26 150 -41 167 -5 5 -9 15 -9 23 0 7 -21 40 -46 72 -54 69 -140 126 -215 141 -30 6 -70 15 -90 20 -42 10 -34 11 -119 -6z"/>
 <path d="M1310 2274 c-107 -39 -190 -138 -311 -375 -49 -96 -147 -204 -208 -231 -105 -46 -162 -58 -288 -58 -83 0 -124 -4 -129 -12 -10 -15 98 -114 146 -135 112 -47 152 -56 228 -49 102 10 168 45 280 150 55 51 124 157 142 216 7 25 19 56 26 70 6 14 19 48 27 75 50 160 86 224 162 284 46 37 53 47 43 58 -22 21 -70 24 -118 7z"/>
 <path d="M1594 1753 c-84 -81 -144 -233 -144 -369 0 -109 -57 -280 -122 -362 -51 -66 -135 -120 -226 -147 -28 -9 -54 -19 -56 -24 -3 -5 -21 -12 -40 -15 -42 -8 -62 -29 -43 -44 7 -6 47 -23 88 -37 56 -19 95 -25 157 -25 74 0 91 4 149 33 95 47 208 169 248 269 29 72 30 76 36 323 6 267 19 347 61 392 28 30 17 53 -25 53 -26 0 -44 -10 -83 -47z"/>
 <path d="M3969 1669 c-30 -56 24 -130 143 -193 54 -29 91 -40 192 -56 69 -11 143 -20 165 -20 76 0 279 -108 339 -180 18 -22 92 -175 92 -191 0 -23 48 -119 59 -119 18 0 52 88 69 177 15 78 15 89 0 148 -40 152 -106 230 -263 310 l-97 49 -226 3 c-125 1 -252 6 -284 12 -60 10 -138 45 -151 67 -11 20 -25 17 -38 -7z"/>
 <path d="M2220 1359 c-51 -56 -55 -70 -55 -204 0 -104 2 -117 43 -232 23 -67 42 -133 42 -147 0 -13 4 -36 10 -50 14 -39 -4 -201 -30 -261 -34 -80 -86 -150 -155 -211 -61 -54 -76 -77 -57 -87 4 -2 45 0 92 5 130 14 262 87 326 182 34 50 64 175 64 271 0 93 -25 183 -88 315 -109 230 -125 276 -126 372 -2 93 -15 103 -66 47z"/>
 <path d="M3487 1372 c-21 -23 -22 -59 -3 -98 8 -16 21 -45 31 -65 16 -36 148 -150 205 -177 14 -6 32 -16 40 -22 8 -5 54 -28 102 -51 70 -33 100 -54 148 -106 33 -35 71 -81 83 -101 30 -49 67 -227 67 -324 0 -45 5 -80 11 -84 24 -14 121 107 166 210 7 16 13 67 13 117 0 85 -2 91 -42 168 -65 121 -98 161 -175 213 -68 46 -244 122 -368 157 -83 24 -161 72 -215 132 -44 48 -46 49 -63 31z"/>
 <path d="M2793 1252 c-29 -23 -46 -94 -38 -159 10 -81 73 -197 150 -279 96 -101 169 -258 182 -397 5 -44 -17 -159 -37 -198 -26 -51 -61 -152 -56 -164 16 -42 181 52 245 139 65 87 75 120 79 236 4 102 2 109 -33 198 -36 90 -40 95 -199 259 -199 207 -210 221 -233 307 -10 38 -22 71 -28 72 -5 2 -20 -4 -32 -14z"/>
 </g>
<g id="layer102" fill="#fefcf2" stroke="none">
 <path d="M2745 5684 c-82 -44 -116 -70 -171 -133 -70 -81 -96 -138 -102 -225 -5 -77 17 -205 43 -256 35 -67 111 -162 220 -275 168 -172 180 -189 207 -279 12 -43 29 -81 37 -84 8 -3 24 6 36 22 81 102 47 276 -85 435 -98 117 -157 210 -180 281 -18 56 -20 264 -3 300 6 14 33 69 58 122 26 53 44 101 41 107 -12 18 -48 12 -101 -15z m55 -24 c0 -6 -9 -28 -20 -49 -29 -58 -60 -143 -54 -152 2 -4 0 -10 -5 -13 -5 -3 -12 -43 -16 -89 -8 -103 12 -212 49 -260 15 -19 26 -39 26 -45 0 -6 47 -74 105 -152 101 -134 106 -144 126 -229 19 -79 20 -95 9 -135 -15 -56 -40 -82 -40 -43 0 15 -8 43 -17 64 -21 45 -121 183 -133 183 -25 0 -241 248 -278 319 -43 81 -60 199 -43 298 19 114 93 216 194 268 29 15 56 31 62 36 12 12 35 11 35 -1z"/>
 <path d="M3620 5549 c-80 -21 -177 -68 -206 -100 -36 -41 -85 -130 -102 -183 -18 -60 -27 -251 -14 -280 13 -28 34 -78 62 -149 12 -31 26 -60 31 -63 5 -3 9 -13 9 -23 0 -10 11 -39 25 -63 14 -25 34 -69 44 -99 10 -30 25 -67 32 -84 7 -16 11 -35 10 -42 -1 -6 3 -14 8 -17 14 -9 25 14 13 26 -6 6 -8 16 -5 24 5 15 -26 97 -90 236 -53 112 -71 159 -87 218 -7 25 -17 57 -22 72 -10 27 -6 147 7 206 4 18 26 70 49 115 36 71 48 85 91 109 113 62 138 71 225 75 84 4 85 3 60 -14 -59 -42 -106 -92 -149 -160 -55 -84 -101 -217 -83 -235 9 -9 12 -8 16 3 49 168 117 288 190 339 64 44 92 78 77 93 -17 17 -113 16 -191 -4z"/>
 <path d="M1574 5363 c-38 -50 -93 -133 -109 -163 -16 -31 -24 -124 -11 -128 6 -2 22 35 37 81 24 77 55 134 108 195 24 28 29 28 33 -3 4 -33 22 -33 26 0 8 61 -43 72 -84 18z"/>
 <path d="M1624 5285 c-12 -30 4 -149 30 -223 52 -152 156 -255 365 -363 79 -41 165 -93 192 -117 53 -48 99 -130 99 -178 0 -34 -21 -58 -28 -33 -3 8 -25 33 -49 56 -45 42 -123 79 -338 159 -235 87 -315 152 -397 324 -9 19 -18 44 -20 54 -4 26 -22 26 -26 0 -6 -42 99 -211 165 -267 50 -41 164 -107 187 -107 8 0 35 -8 58 -19 24 -10 99 -40 168 -67 128 -49 199 -94 222 -141 7 -14 21 -31 31 -37 15 -9 22 -7 38 13 26 31 24 85 -5 146 -43 93 -123 157 -321 258 -222 114 -344 289 -345 494 0 52 -15 78 -26 48z"/>
 <path d="M3526 5041 c-9 -14 4 -110 15 -117 5 -3 7 -9 4 -14 -3 -5 0 -20 7 -32 7 -13 11 -28 10 -35 -2 -7 7 -32 19 -55 12 -24 23 -52 25 -63 1 -11 7 -53 13 -94 6 -41 8 -91 5 -111 -8 -47 11 -63 27 -23 14 34 -2 198 -22 235 -7 12 -14 25 -14 28 -8 38 -28 90 -35 95 -6 4 -8 10 -5 15 3 5 1 19 -5 31 -7 11 -13 46 -15 76 -4 56 -17 85 -29 64z"/>
 <path d="M4470 4986 c-111 -40 -220 -151 -272 -277 -14 -34 -18 -53 -11 -60 7 -7 22 15 47 66 43 92 139 194 213 226 76 34 182 37 287 8 47 -13 86 -27 86 -30 0 -4 -39 -21 -87 -39 -110 -41 -163 -74 -235 -147 -98 -100 -141 -204 -163 -386 -27 -231 -53 -301 -137 -368 -61 -48 -123 -55 -85 -10 7 9 26 44 40 78 27 60 27 66 25 225 -4 215 -21 213 -28 -4 -5 -152 -7 -168 -33 -228 -16 -36 -36 -73 -44 -82 -13 -14 -13 -20 -3 -33 27 -33 111 -7 173 53 67 65 99 159 117 341 19 188 78 331 172 417 47 44 131 87 253 132 112 41 110 57 -15 99 -78 27 -110 32 -180 32 -47 0 -101 -6 -120 -13z"/>
 <path d="M816 4783 c-40 -62 -59 -154 -53 -256 7 -109 29 -158 106 -237 61 -63 176 -142 200 -139 9 1 29 -3 45 -10 16 -6 35 -10 42 -7 6 2 17 -1 23 -7 8 -8 80 -13 231 -15 120 -1 224 -4 232 -6 7 -2 33 -9 58 -16 25 -6 62 -25 82 -41 43 -34 54 -36 68 -10 31 59 -28 158 -125 208 -61 32 -186 67 -247 69 -38 2 -73 6 -78 9 -6 4 -25 6 -43 4 -17 -1 -39 1 -47 4 -8 3 -40 13 -70 22 -74 23 -172 87 -220 145 -51 61 -104 161 -120 230 -13 53 -34 90 -51 90 -5 0 -20 -17 -33 -37z m54 -55 c21 -72 77 -182 119 -235 51 -63 181 -150 256 -169 30 -8 60 -12 65 -9 5 3 12 0 15 -6 4 -5 23 -9 44 -8 20 1 49 -3 64 -10 16 -6 45 -11 66 -11 54 0 225 -56 260 -86 42 -35 73 -89 69 -121 l-3 -27 -35 31 c-35 30 -69 43 -126 47 -17 2 -35 5 -40 8 -5 3 -108 7 -229 9 -121 2 -225 7 -231 11 -6 4 -24 9 -40 11 -51 6 -144 60 -215 125 -38 35 -69 69 -69 76 0 6 -9 30 -21 51 -39 76 -35 209 10 328 15 38 26 34 41 -15z"/>
 <path d="M4170 4611 c-13 -25 -9 -131 5 -131 12 0 25 131 14 144 -4 4 -12 -1 -19 -13z"/>
 <path d="M3616 4441 c-9 -9 -16 -23 -16 -29 0 -14 -49 -72 -62 -72 -6 0 -8 13 -6 30 6 37 -7 48 -22 20 -16 -30 -9 -74 13 -78 22 -4 111 82 119 116 8 29 -5 36 -26 13z"/>
 <path d="M2802 4401 c-112 -11 -69 -26 95 -33 208 -10 295 -16 313 -21 143 -42 279 -91 353 -128 248 -124 444 -298 591 -524 22 -33 48 -72 58 -87 10 -15 18 -31 18 -35 0 -4 17 -43 39 -88 21 -44 51 -120 66 -170 15 -49 31 -102 37 -116 5 -14 12 -47 16 -73 4 -26 12 -45 17 -44 14 4 9 84 -8 132 -8 23 -29 87 -47 144 -90 290 -313 584 -593 780 -127 89 -473 239 -535 231 -9 -1 -24 1 -32 4 -48 18 -297 37 -388 28z"/>
 <path d="M2585 4375 c-153 -32 -200 -50 -425 -157 -83 -40 -180 -113 -308 -230 -34 -32 -66 -58 -70 -58 -4 0 -30 -29 -57 -65 -28 -36 -69 -89 -92 -116 -52 -64 -185 -330 -213 -429 -12 -41 -26 -90 -32 -108 -5 -18 -8 -45 -7 -60 2 -15 -2 -37 -9 -49 -15 -27 -17 -439 -2 -448 5 -3 7 -12 4 -19 -5 -12 16 -110 34 -156 3 -8 4 -20 3 -27 -6 -42 90 -268 173 -406 46 -75 115 -159 127 -151 9 5 -17 47 -57 94 -23 26 -32 42 -101 170 -34 63 -58 124 -121 300 -3 8 -4 19 -3 24 2 8 -24 124 -35 156 -5 15 -5 416 1 455 1 11 5 27 8 35 2 8 10 42 17 75 7 33 23 88 36 123 13 34 24 68 24 76 0 30 145 286 212 374 117 154 327 331 489 414 90 46 238 108 257 108 10 0 35 9 56 20 22 10 66 22 100 26 73 8 109 20 101 34 -8 12 -33 11 -110 -5z"/>
 <path d="M4939 4290 c-126 -53 -220 -145 -278 -271 -79 -173 -89 -195 -95 -224 -4 -16 -23 -68 -43 -115 -29 -71 -45 -95 -100 -147 -72 -70 -75 -86 -16 -102 57 -16 73 -14 128 18 88 51 156 133 231 276 37 72 82 151 99 178 35 52 124 126 196 163 55 27 197 45 304 37 57 -4 73 -2 84 11 11 14 9 20 -20 47 -50 46 -139 105 -204 134 -83 36 -194 35 -286 -5z m260 -21 c59 -20 211 -112 211 -127 0 -4 -51 -7 -112 -7 -144 -1 -210 -16 -287 -66 -114 -74 -169 -139 -255 -304 -86 -164 -143 -234 -232 -286 -53 -30 -79 -35 -102 -20 -11 6 -8 15 13 37 84 90 107 131 158 285 44 130 115 278 157 327 63 73 116 110 240 166 49 22 135 20 209 -5z"/>
 <path d="M2780 4179 c-176 -18 -330 -64 -493 -145 -216 -109 -432 -322 -554 -545 -52 -96 -108 -238 -123 -314 -6 -33 -16 -68 -22 -79 -12 -23 -12 -407 0 -450 6 -17 15 -58 22 -91 19 -94 29 -123 85 -241 103 -219 222 -366 417 -515 253 -194 605 -286 948 -249 256 28 529 154 728 335 174 159 321 400 383 630 47 175 50 495 5 660 -68 250 -176 444 -336 605 -213 215 -472 345 -775 390 -138 21 -166 22 -285 9z"/>
 <path d="M196 3751 c-13 -14 -15 -24 -8 -38 5 -10 13 -45 17 -78 10 -87 50 -183 99 -233 47 -50 111 -97 161 -117 60 -26 48 2 -17 38 -129 72 -170 126 -202 260 -17 71 -28 147 -22 147 2 0 37 -32 77 -70 88 -84 199 -154 269 -169 83 -18 202 -14 283 10 39 12 102 29 138 39 99 27 145 48 132 61 -11 11 -46 2 -218 -56 -87 -30 -191 -40 -277 -27 -120 17 -203 62 -310 167 -48 47 -91 85 -96 85 -5 0 -17 -9 -26 -19z"/>
 <path d="M1145 3611 c-7 -12 12 -24 25 -16 11 7 4 25 -10 25 -5 0 -11 -4 -15 -9z"/>
 <path d="M1285 3601 c-3 -6 23 -23 58 -39 93 -42 101 -77 16 -66 -70 9 -135 -10 -309 -92 -226 -106 -307 -129 -436 -122 -44 2 -74 -1 -74 -7 -2 -15 37 -23 110 -23 119 -1 197 23 420 130 151 73 270 98 338 73 18 -7 52 12 52 29 0 46 -155 149 -175 117z"/>
 <path d="M5245 3288 c-141 -27 -244 -94 -421 -273 -139 -141 -181 -171 -266 -195 -83 -22 -93 -41 -48 -79 19 -17 49 -33 66 -36 41 -9 144 11 208 39 52 23 169 102 237 160 65 55 189 114 257 123 77 10 78 29 1 26 -75 -2 -158 -44 -319 -163 -69 -50 -149 -103 -178 -117 -72 -34 -189 -51 -228 -32 -15 8 -29 18 -29 23 0 4 28 17 63 28 57 17 73 29 205 156 152 147 259 233 345 276 49 25 62 27 190 28 77 0 149 -4 163 -10 25 -10 92 -75 153 -149 15 -18 38 -60 51 -93 l24 -61 -42 24 c-23 14 -60 35 -82 47 -22 12 -45 26 -51 31 -15 13 -148 16 -152 4 -1 -5 8 -11 20 -13 40 -4 133 -25 143 -32 6 -4 35 -21 65 -37 30 -16 65 -36 76 -43 26 -16 54 -7 54 18 0 32 -49 133 -90 184 -53 67 -135 139 -162 142 -13 2 -30 6 -38 9 -71 27 -128 31 -215 15z"/>
 <path d="M4407 3034 c-11 -11 -8 -282 2 -289 19 -11 25 23 23 149 -1 119 -8 157 -25 140z"/>
 <path d="M1100 3013 c-19 -9 -62 -29 -95 -44 -33 -15 -89 -50 -125 -78 -36 -28 -69 -51 -73 -51 -5 0 -29 -18 -54 -39 -24 -22 -79 -54 -121 -73 -66 -28 -91 -33 -176 -36 -109 -4 -155 8 -293 76 -60 29 -75 33 -88 22 -41 -34 -2 -121 103 -229 111 -113 233 -149 399 -117 145 28 203 65 399 257 173 170 226 208 287 209 35 0 67 16 67 34 0 22 -46 57 -95 72 -60 18 -91 17 -135 -3z m148 -33 c23 -10 42 -23 42 -28 0 -5 -20 -12 -45 -14 -63 -8 -106 -40 -279 -214 -161 -160 -211 -196 -331 -235 -95 -31 -240 -33 -305 -4 -64 28 -141 96 -189 167 -47 70 -52 98 -18 98 13 0 27 -4 32 -8 6 -5 50 -26 99 -46 88 -37 89 -38 205 -34 113 3 118 5 201 45 101 50 113 58 166 103 87 75 105 88 141 110 51 30 182 79 213 79 14 0 44 -8 68 -19z"/>
 <path d="M4396 2683 c-3 -3 -6 -22 -6 -41 0 -54 -57 -268 -93 -352 -59 -136 -116 -236 -176 -310 -212 -262 -280 -322 -502 -443 -166 -91 -373 -158 -527 -173 -72 -7 -98 -18 -67 -30 18 -7 171 11 220 26 230 70 327 110 415 170 14 9 54 32 89 51 48 25 103 71 211 179 141 139 191 200 236 279 11 21 30 53 41 72 46 74 102 197 121 264 11 39 28 97 37 129 30 105 31 209 1 179z"/>
 <path d="M5095 2470 c-68 -8 -150 -31 -209 -59 -23 -11 -95 -45 -161 -76 -145 -68 -240 -92 -302 -74 -34 9 -46 9 -58 -1 -23 -19 -18 -41 16 -83 42 -51 109 -70 231 -64 88 4 208 29 253 53 11 6 52 19 90 28 102 26 100 25 87 38 -14 14 -106 -4 -167 -32 -86 -39 -167 -55 -285 -55 -128 0 -171 12 -189 51 -15 33 -6 47 21 33 47 -25 150 3 336 92 153 73 206 92 331 115 51 9 86 11 110 5 20 -6 61 -15 91 -21 30 -6 79 -26 108 -44 53 -34 132 -122 132 -148 0 -8 4 -18 9 -23 26 -28 53 -199 35 -217 -6 -7 -69 59 -75 79 -11 33 -203 150 -260 157 -13 2 -31 7 -41 10 -22 10 -69 3 -66 -9 2 -5 19 -11 38 -11 38 -2 82 -18 178 -67 47 -23 81 -51 130 -107 36 -41 72 -82 79 -90 24 -25 53 21 53 83 0 60 -33 176 -67 234 -32 56 -111 126 -176 157 -39 19 -212 64 -212 55 0 -1 -27 -5 -60 -9z"/>
 <path d="M1325 2290 c-58 -15 -81 -29 -147 -90 -71 -66 -88 -90 -164 -240 -89 -177 -133 -229 -244 -285 -85 -43 -143 -55 -276 -55 -98 0 -124 -3 -134 -16 -15 -17 -14 -18 64 -83 69 -56 81 -39 15 20 l-54 48 120 1 c124 0 186 13 285 58 83 38 176 143 238 267 104 211 183 304 286 339 29 10 61 14 78 11 l28 -7 -54 -45 c-76 -62 -114 -129 -163 -288 -8 -27 -21 -61 -27 -75 -7 -14 -19 -45 -26 -70 -17 -56 -87 -165 -132 -206 -107 -98 -172 -131 -274 -140 -70 -5 -87 -3 -149 21 -84 32 -89 33 -95 20 -6 -14 126 -65 185 -72 82 -8 157 11 234 61 93 60 146 109 189 176 37 57 112 223 112 247 0 19 54 154 88 219 17 33 47 68 84 98 53 43 69 68 51 79 -18 10 -90 15 -118 7z"/>
 <path d="M1726 1872 c-17 -28 222 -239 374 -329 197 -116 429 -198 583 -205 97 -5 59 17 -67 39 -68 11 -129 24 -135 28 -6 3 -35 12 -64 20 -77 20 -291 125 -363 177 -33 25 -65 47 -71 49 -20 7 -93 72 -172 153 -49 50 -80 75 -85 68z"/>
 <path d="M1656 1810 c-49 -15 -116 -89 -153 -169 -51 -108 -27 -115 27 -7 46 92 100 146 144 146 31 0 32 -7 6 -35 -11 -11 -29 -58 -40 -103 -18 -71 -21 -112 -20 -293 1 -116 -1 -213 -4 -217 -3 -3 -6 -12 -6 -20 0 -8 -12 -46 -27 -83 -37 -95 -134 -201 -226 -247 -58 -28 -75 -32 -148 -32 -62 0 -101 6 -163 27 l-81 27 35 11 c19 6 52 19 72 28 21 9 43 17 49 17 18 0 140 68 168 93 58 53 110 136 135 213 37 114 50 184 38 196 -12 12 -26 -12 -36 -62 -25 -132 -90 -268 -152 -321 -45 -38 -126 -78 -219 -108 -55 -18 -107 -39 -115 -47 -23 -22 11 -46 111 -78 73 -24 100 -28 170 -25 114 5 177 37 285 144 72 71 83 88 108 157 15 42 26 85 25 95 -1 10 1 25 4 33 3 8 8 114 10 235 4 244 17 318 65 368 43 46 8 78 -62 57z"/>
 <path d="M3956 1678 c-13 -19 -14 -31 -5 -63 15 -53 75 -107 176 -156 65 -32 99 -42 173 -50 64 -7 96 -7 103 0 14 14 4 16 -121 35 -155 24 -284 99 -298 173 -4 19 -4 36 -2 38 3 3 30 -9 61 -25 78 -43 138 -51 399 -53 l226 -3 97 -49 c141 -73 188 -124 230 -250 22 -64 26 -91 21 -135 -7 -74 -34 -172 -50 -188 -11 -11 -16 -6 -30 27 -9 23 -16 46 -16 53 0 19 -78 172 -102 199 -72 82 -277 193 -343 187 -43 -4 -37 -22 10 -29 60 -8 184 -64 237 -107 25 -20 62 -58 81 -84 38 -49 87 -145 87 -169 0 -24 35 -109 52 -125 21 -21 34 -12 54 34 21 50 54 195 54 236 0 18 -9 59 -21 92 -11 32 -23 69 -26 80 -11 47 -89 129 -154 163 -35 19 -71 40 -79 47 -45 39 -100 47 -370 54 -264 6 -266 7 -325 35 -33 15 -65 28 -72 28 -7 0 -11 5 -10 10 4 21 -23 17 -37 -5z"/>
 <path d="M1460 1515 c-12 -31 -10 -60 5 -60 14 0 28 66 16 78 -7 7 -14 1 -21 -18z"/>
 <path d="M2253 1407 c-29 -16 -82 -84 -90 -116 -11 -41 -9 -171 2 -171 6 0 13 38 17 85 3 49 13 96 21 108 15 22 55 67 60 67 2 0 3 -30 3 -67 1 -96 16 -141 126 -373 90 -190 108 -314 68 -473 -30 -118 -74 -170 -195 -231 -54 -27 -89 -37 -152 -44 -46 -4 -83 -6 -83 -4 0 3 29 32 65 64 71 65 121 134 155 213 26 60 44 222 30 261 -12 30 -34 22 -26 -10 6 -23 -9 -155 -26 -224 -15 -58 -75 -150 -134 -203 -110 -99 -108 -97 -89 -119 22 -24 56 -25 155 -4 118 24 257 121 299 207 44 92 65 285 40 366 -27 86 -76 204 -124 301 -70 144 -92 231 -76 312 5 31 5 50 -2 57 -13 13 -17 13 -44 -2z"/>
 <path d="M3476 1382 c-33 -35 -31 -62 12 -150 24 -50 58 -84 154 -156 68 -51 48 -9 -22 45 -40 31 -76 69 -86 89 -9 19 -22 48 -30 64 -15 30 -19 78 -8 89 4 4 25 -14 46 -38 49 -55 143 -112 223 -136 124 -35 300 -110 367 -156 72 -49 109 -97 168 -218 25 -51 30 -73 31 -145 1 -53 -4 -96 -13 -115 -29 -63 -79 -142 -108 -170 l-30 -29 0 77 c0 85 -32 256 -57 302 -23 42 -89 123 -137 168 -33 30 -190 117 -212 117 -2 0 -18 10 -33 21 -16 12 -34 18 -41 14 -18 -11 25 -50 78 -70 105 -39 262 -145 262 -177 0 -5 13 -26 30 -46 51 -64 89 -254 69 -352 -10 -54 -10 -62 6 -80 23 -26 41 -25 55 1 7 11 26 37 44 57 47 54 97 137 100 166 1 14 6 29 9 33 13 12 7 159 -7 208 -15 47 -75 144 -125 199 -68 74 -176 130 -411 210 -138 48 -224 95 -257 141 -51 72 -45 70 -77 37z"/>
 <path d="M2776 1351 c-4 -5 -2 -12 3 -15 5 -4 12 -2 15 3 4 5 2 12 -3 15 -5 4 -12 2 -15 -3z"/>
 <path d="M2825 1340 c-3 -5 0 -13 8 -16 23 -9 142 0 142 11 0 14 -142 19 -150 5z"/>
 <path d="M2781 1265 c-22 -29 -36 -79 -26 -95 9 -15 25 -2 25 19 0 11 9 29 19 42 l19 24 12 -45 c6 -25 14 -54 17 -65 9 -34 52 -84 219 -258 159 -164 163 -169 199 -259 35 -89 37 -96 33 -198 -3 -112 -14 -145 -71 -227 -35 -50 -135 -122 -183 -133 -19 -4 -34 -4 -34 0 0 7 25 68 52 130 21 47 47 155 47 199 1 39 -5 67 -27 131 -3 8 -4 18 -4 22 1 4 -18 49 -42 100 -32 69 -61 111 -110 163 -68 72 -146 206 -146 251 0 29 -18 41 -27 18 -16 -41 62 -192 150 -290 77 -86 154 -221 163 -284 16 -126 16 -138 -5 -215 -12 -44 -40 -117 -63 -162 -33 -68 -38 -86 -28 -98 18 -21 44 -19 104 11 80 39 181 135 219 208 31 59 32 64 32 191 0 123 -2 133 -28 182 -15 29 -27 58 -27 65 0 17 -87 117 -216 248 -140 142 -174 190 -191 264 -22 91 -44 108 -82 61z"/>
 <path d="M2164 1065 c-5 -12 24 -116 82 -293 5 -17 24 -6 24 14 0 9 -18 68 -40 131 -22 64 -40 124 -40 134 0 24 -19 34 -26 14z"/>
 </g>

</svg>