<svg id="logo-circle"width="610"height="610"viewBox="0 0 610 610"fill="transparent"
xmlns="http://www.w3.org/2000/svg">
    <circle id="logo-circle"cx="305"cy="305"r="302.5"stroke="#29CA8E"stroke-width="5"/>
    <path d="M479.84 195.201C479.739 194.295 479.626 193.394 479.5 192.5C479.613 192.888 479.741 193.804 479.84 195.201C485.069 242.399 456.167 305.602 451 308C407.199 309.373 382.697 309.216 340.5 283.5L343 278.5C380.845 299.734 404.441 304.999 451.5 300.5C479.44 249.708 480.638 206.552 479.84 195.201Z"
    stroke="black"/>
    <path d="M307 276.5C301.433 274.958 310.295 249.557 351 249.5L348.5 256C326.49 258.681 316.512 262.351 307 276.5Z"
    stroke="black"/>
    <path d="M240 381.5C161.73 343.434 173.4 262.984 171.5 260.5C171.072 325.371 185.809 356.88 240 389C265.072 400.867 281.673 406.683 314.5 416C330.955 422.152 336.823 426.798 340.5 437.5C341.625 424.628 335.561 418.446 314.5 409C283.155 399.354 266.114 393.687 240 381.5Z"
    stroke="black"/>
    <path d="M167 536.5C205.221 550.907 224.263 557.286 252.5 562.5L247 568.5C215.946 562.065 198.422 556.209 167 542.5C162.786 536.574 164.9 511 164.9 511C164.9 511 165.377 527.166 167 536.5Z"
    stroke="black"/>
    <path d="M287 573.5L481.5 439.5C475.94 477.222 468.768 497.986 429.5 532.5C382.305 565.398 350.351 572.871 287 573.5Z"
    stroke="#003300"/>
    <path d="M476.5 393.5L259 571C269.132 572.502 275.675 572.66 287 573.5L481.5 439.5C483.057 418.284 481.654 408.499 476.5 393.5Z"
    stroke="#006633"/>
    <path d="M361.5 216.5C361.5 216.5 361.977 137.915 361.5 136.5C361.023 135.085 334.636 128.677 320.5 130.5L268.5 179.5L194.5 189.5C178.119 214.817 173.278 229.959 171.5 256.5C172.185 300.589 176.516 317.897 193.5 342C214.621 371.51 236.627 385.399 299.5 404C326.452 411.335 344.5 423.5 340.5 438C336.5 452.5 323.828 456.485 299.5 457.5C276.594 455.323 255.977 448.532 193.5 418C168.793 454.382 160.213 482.235 167 536.5C198.444 549.462 217.061 555.403 252.5 563L459.5 362.5C437.625 332.419 414.289 319.517 361.5 300.5C361.791 300.355 306.549 292.226 306 276.5C305.451 260.774 326.794 250.303 351.5 249.5L340.5 276.5C378.495 300.097 403.075 304.099 451.5 300.5C460.164 283.895 464.531 274.357 470.5 256.5C477.095 235.335 478.736 222.967 480 200.5C478.909 180.479 477.429 169.158 470.5 148.5C432.921 135.999 412.137 132.704 375.5 132.5C372.609 165.94 369.56 184.333 361.5 216.5Z"
    stroke="black"/>
    <path d="M476.5 393.5C471.33 380.434 467.527 373.699 459.5 362.5L247 568.5C251.735 569.607 254.357 570.142 259 571L476.5 393.5Z"
    stroke="#669966"/>
    <path d="M89 158.5L170 142V154L177 188.5C181.014 201.261 193.5 192.942 194.5 189.5C195.5 186.058 238.697 184.073 269 179.5C300.829 148.774 321.585 129.762 324 129C326.415 128.238 326.941 118.961 328 119C315.748 98.0558 307.826 94.5431 294.5 82L354 31.5C352.544 26.6394 351.602 24.3107 349.5 21.5L210 65.5L89 147.5V158.5Z"
    stroke="black"/>
</svg>